<mxfile host="www.draw.io" modified="2020-01-27T22:34:17.950Z" agent="Mozilla/5.0 (Windows NT 10.0; Win64; x64) AppleWebKit/537.36 (KHTML, like Gecko) Chrome/79.0.3945.130 Safari/537.36" etag="x0K1UVdKk1kVRT3dVgWJ" version="12.5.8" type="github">
  <diagram id="sdxvspw49n9-RjHwvH1e" name="Page-1">
    <mxGraphModel dx="1264" dy="533" grid="1" gridSize="10" guides="1" tooltips="1" connect="1" arrows="1" fold="1" page="1" pageScale="1" pageWidth="827" pageHeight="1169" math="0" shadow="0">
      <root>
        <mxCell id="0"/>
        <mxCell id="1" parent="0"/>
        <mxCell id="aIS1OzswWVEIR3kXA4wH-1" value="clicking on delete contact button" style="rounded=1;whiteSpace=wrap;html=1;arcSize=40;fontColor=#000000;fillColor=#ffffc0;strokeColor=#ff0000;" vertex="1" parent="1">
          <mxGeometry x="180" y="140" width="120" height="40" as="geometry"/>
        </mxCell>
        <mxCell id="aIS1OzswWVEIR3kXA4wH-2" value="" style="edgeStyle=orthogonalEdgeStyle;html=1;verticalAlign=bottom;endArrow=open;endSize=8;strokeColor=#ff0000;" edge="1" parent="1" source="aIS1OzswWVEIR3kXA4wH-1">
          <mxGeometry relative="1" as="geometry">
            <mxPoint x="240" y="240" as="targetPoint"/>
          </mxGeometry>
        </mxCell>
        <mxCell id="aIS1OzswWVEIR3kXA4wH-3" value="" style="ellipse;html=1;shape=startState;fillColor=#000000;strokeColor=#ff0000;" vertex="1" parent="1">
          <mxGeometry x="225" y="240" width="30" height="30" as="geometry"/>
        </mxCell>
        <mxCell id="aIS1OzswWVEIR3kXA4wH-4" value="" style="edgeStyle=orthogonalEdgeStyle;html=1;verticalAlign=bottom;endArrow=open;endSize=8;strokeColor=#ff0000;" edge="1" parent="1" source="aIS1OzswWVEIR3kXA4wH-3">
          <mxGeometry relative="1" as="geometry">
            <mxPoint x="240" y="330" as="targetPoint"/>
          </mxGeometry>
        </mxCell>
        <mxCell id="aIS1OzswWVEIR3kXA4wH-5" value="show prompt to see if user is sure" style="rounded=1;whiteSpace=wrap;html=1;arcSize=40;fontColor=#000000;fillColor=#ffffc0;strokeColor=#ff0000;" vertex="1" parent="1">
          <mxGeometry x="180" y="330" width="120" height="40" as="geometry"/>
        </mxCell>
        <mxCell id="aIS1OzswWVEIR3kXA4wH-6" value="" style="edgeStyle=orthogonalEdgeStyle;html=1;verticalAlign=bottom;endArrow=open;endSize=8;strokeColor=#ff0000;" edge="1" parent="1" source="aIS1OzswWVEIR3kXA4wH-5">
          <mxGeometry relative="1" as="geometry">
            <mxPoint x="240" y="430" as="targetPoint"/>
          </mxGeometry>
        </mxCell>
        <mxCell id="aIS1OzswWVEIR3kXA4wH-7" value="is user sure?" style="rhombus;whiteSpace=wrap;html=1;fillColor=#ffffc0;strokeColor=#ff0000;" vertex="1" parent="1">
          <mxGeometry x="200" y="430" width="80" height="40" as="geometry"/>
        </mxCell>
        <mxCell id="aIS1OzswWVEIR3kXA4wH-8" value="no" style="edgeStyle=orthogonalEdgeStyle;html=1;align=left;verticalAlign=bottom;endArrow=open;endSize=8;strokeColor=#ff0000;entryX=1;entryY=0.5;entryDx=0;entryDy=0;exitX=1;exitY=0.5;exitDx=0;exitDy=0;" edge="1" parent="1" source="aIS1OzswWVEIR3kXA4wH-7" target="aIS1OzswWVEIR3kXA4wH-12">
          <mxGeometry x="-1" relative="1" as="geometry">
            <mxPoint x="400" y="770" as="targetPoint"/>
            <Array as="points">
              <mxPoint x="370" y="450"/>
              <mxPoint x="370" y="645"/>
            </Array>
          </mxGeometry>
        </mxCell>
        <mxCell id="aIS1OzswWVEIR3kXA4wH-9" value="yes" style="edgeStyle=orthogonalEdgeStyle;html=1;align=left;verticalAlign=top;endArrow=open;endSize=8;strokeColor=#ff0000;" edge="1" parent="1" source="aIS1OzswWVEIR3kXA4wH-7">
          <mxGeometry x="-1" relative="1" as="geometry">
            <mxPoint x="240" y="530" as="targetPoint"/>
          </mxGeometry>
        </mxCell>
        <mxCell id="aIS1OzswWVEIR3kXA4wH-10" value="Categories deleted successfully" style="rounded=1;whiteSpace=wrap;html=1;arcSize=40;fontColor=#000000;fillColor=#ffffc0;strokeColor=#ff0000;" vertex="1" parent="1">
          <mxGeometry x="180" y="530" width="120" height="40" as="geometry"/>
        </mxCell>
        <mxCell id="aIS1OzswWVEIR3kXA4wH-11" value="" style="edgeStyle=orthogonalEdgeStyle;html=1;verticalAlign=bottom;endArrow=open;endSize=8;strokeColor=#ff0000;" edge="1" parent="1" source="aIS1OzswWVEIR3kXA4wH-10">
          <mxGeometry relative="1" as="geometry">
            <mxPoint x="240" y="630" as="targetPoint"/>
          </mxGeometry>
        </mxCell>
        <mxCell id="aIS1OzswWVEIR3kXA4wH-12" value="" style="ellipse;html=1;shape=endState;fillColor=#000000;strokeColor=#ff0000;" vertex="1" parent="1">
          <mxGeometry x="225" y="630" width="30" height="30" as="geometry"/>
        </mxCell>
      </root>
    </mxGraphModel>
  </diagram>
</mxfile>
